<svg xmlns="http://www.w3.org/2000/svg" xmlns:xlink="http://www.w3.org/1999/xlink" width="1536" zoomAndPan="magnify" viewBox="0 0 1152 767.999994" height="1024" preserveAspectRatio="xMidYMid meet" version="1.2"><g id="262353de41"><path style=" stroke:none;fill-rule:evenodd;fill:#000000;fill-opacity:1;" d="M 475.582031 134.679688 C 463.769531 137.875 457.058594 144.308594 447.816406 161.285156 C 428.761719 196.285156 428.828125 196.171875 425.214844 198.019531 C 422.558594 199.371094 420.757812 199.5 404.28125 199.5 L 386.25 199.5 L 386.25 186.484375 C 386.25 174.222656 386.152344 173.328125 384.5625 171 C 383.632812 169.640625 381.695312 167.894531 380.25 167.125 C 377.777344 165.800781 375.632812 165.730469 343.699219 165.921875 L 309.769531 166.125 L 306.710938 169.1875 C 302.816406 173.082031 302.289062 175.40625 302.269531 188.8125 L 302.25 199.5 L 297.71875 199.5 C 291.875 199.5 282.839844 201.378906 277.125 203.78125 C 270.585938 206.53125 265.089844 210.355469 259.066406 216.34375 C 250.09375 225.265625 244.523438 236.886719 242.941406 249.976562 C 242.46875 253.910156 242.277344 313.578125 242.417969 415.5 C 242.621094 564.019531 242.726562 575.167969 243.933594 579.1875 C 247.304688 590.386719 251.777344 598.113281 259.1875 605.523438 C 264.527344 610.867188 268.382812 613.5625 275.441406 616.890625 C 287.480469 622.566406 274.933594 622.09375 419.0625 622.3125 C 490.113281 622.417969 548.25 622.234375 548.25 621.898438 C 548.25 621.566406 545.164062 620.699219 541.394531 619.976562 C 531.527344 618.085938 513.210938 612.691406 502.824219 608.621094 C 447.433594 586.90625 401.996094 544.046875 379.050781 491.871094 C 372.082031 476.03125 365.417969 452.769531 363.082031 436.125 C 356.988281 392.765625 363.730469 349.625 382.925781 309.1875 L 387.640625 299.25 L 270.75 299.25 L 270.761719 276.5625 C 270.773438 252.019531 271.339844 247.085938 274.84375 241.109375 C 277.402344 236.742188 283.621094 231.214844 288.585938 228.886719 L 292.875 226.875 L 436.125 226.125 L 439.671875 224.378906 C 446.019531 221.25 448.964844 217.328125 459.570312 197.871094 C 474.730469 170.054688 478.683594 163.371094 480.992188 161.679688 C 483.105469 160.128906 483.390625 160.125 574.234375 159.929688 C 657.40625 159.75 665.585938 159.839844 667.953125 160.960938 C 670.777344 162.304688 671.390625 163.261719 683.007812 184.5 L 695.152344 206.703125 C 701.207031 217.769531 704.289062 221.332031 710.25 224.164062 L 714.375 226.125 L 856.875 226.875 L 860.566406 228.578125 C 865.828125 231.003906 869.992188 234.695312 872.863281 239.46875 C 877.796875 247.691406 877.480469 236.136719 877.492188 408.085938 C 877.496094 510.710938 877.238281 565.933594 876.738281 568.585938 C 875.125 577.167969 869.558594 584.800781 861.867188 588.988281 C 853.90625 593.320312 856.023438 593.226562 765.957031 593.238281 L 683.285156 593.25 L 676.332031 596.933594 C 667.449219 601.636719 656.878906 606.089844 645.777344 609.800781 C 635.058594 613.386719 612.347656 619.148438 604.308594 620.324219 C 600.804688 620.835938 598.664062 621.464844 599.0625 621.863281 C 599.457031 622.257812 652.5625 622.441406 727.554688 622.304688 C 869.9375 622.046875 858.386719 622.484375 870.503906 616.886719 C 889.589844 608.070312 901.492188 592.027344 904.46875 571.105469 C 905.089844 566.75 905.257812 521.796875 905.09375 405.75 L 904.863281 246.375 L 903.164062 240.878906 C 896.671875 219.90625 880.566406 204.921875 858.890625 199.691406 C 854.550781 198.644531 845.066406 198.421875 788.457031 198.054688 C 724.328125 197.632812 723.011719 197.597656 721.558594 196.125 C 720.742188 195.300781 714.804688 185.007812 708.363281 173.25 C 701.921875 161.492188 695.449219 150.097656 693.976562 147.925781 C 690.78125 143.207031 684.109375 138.007812 678.183594 135.613281 L 673.875 133.875 L 576.75 133.730469 C 493.675781 133.605469 479.039062 133.742188 475.582031 134.679688 M 555.375 204.800781 L 546 205.882812 C 532.875 207.402344 513.402344 212.847656 498.921875 219.046875 C 475.988281 228.867188 456.042969 242.425781 437.222656 261 C 416.703125 281.246094 402.914062 301.347656 393.082031 325.34375 C 384.492188 346.304688 380.167969 363.394531 377.957031 385.117188 C 376.816406 396.328125 377.4375 424.089844 379.066406 434.625 C 385.402344 475.597656 402.765625 511.347656 431.015625 541.570312 C 460.457031 573.070312 493.136719 591.402344 534.535156 599.640625 C 574.457031 607.585938 617.71875 603.601562 653.800781 588.652344 C 701.363281 568.953125 741.703125 527.332031 760.90625 478.15625 C 767.054688 462.40625 771.457031 445.425781 774.136719 427.125 C 775.394531 418.546875 775.386719 388.398438 774.125 378.75 C 766.90625 323.507812 738.589844 275.6875 692.667969 241.199219 C 665.960938 221.140625 635.496094 209.246094 600.273438 205.128906 C 589.984375 203.925781 564.589844 203.738281 555.375 204.800781 M 565.125 238.179688 C 546.324219 239.996094 540.855469 240.925781 529.5 244.253906 C 501.84375 252.363281 478.71875 266.078125 458.269531 286.511719 C 434.34375 310.414062 419.242188 339.703125 413.226562 373.875 C 411.203125 385.378906 410.441406 408.097656 411.679688 420.082031 C 414.953125 451.777344 426.269531 481.265625 443.878906 504 C 450.480469 512.519531 463.734375 526.046875 472.089844 532.789062 C 495.441406 551.636719 521.832031 563.382812 551.003906 567.914062 C 563.359375 569.832031 586.394531 570.179688 597.75 568.621094 C 634.554688 563.558594 666.488281 547.742188 692.242188 521.8125 C 720.4375 493.417969 736.566406 459.304688 741.027344 418.621094 C 742.300781 407 741.578125 385.585938 739.523438 374.019531 C 731.554688 329.214844 704.816406 288.699219 666.851562 263.90625 C 648.199219 251.726562 624.398438 242.90625 601.300781 239.617188 C 593.683594 238.53125 570.878906 237.625 565.125 238.179688 M 557.625 255.125 C 518.210938 259.574219 483.691406 278.75 458.621094 310.125 C 442.472656 330.335938 431.5 355.648438 427.894531 381.003906 C 426.566406 390.355469 426.386719 414.328125 427.570312 424.125 C 430.152344 445.476562 439.625 470.324219 451.890625 487.921875 C 460.183594 499.824219 466.882812 505.910156 463.175781 498.179688 C 455.230469 481.617188 451.160156 446.320312 454.808594 425.625 C 458.339844 405.59375 468.179688 386.953125 483.097656 372.027344 C 496.820312 358.300781 512.421875 350.671875 526.6875 350.714844 C 529.886719 350.726562 532.5 350.460938 532.5 350.125 C 532.5 349.789062 531.269531 347.90625 529.761719 345.945312 C 526.191406 341.289062 521.597656 331.632812 520.058594 325.527344 C 518.207031 318.210938 518.832031 308.820312 521.46875 304.324219 C 528.398438 292.503906 547.738281 294.300781 562.644531 308.152344 L 568.125 313.25 L 576 314.175781 C 601.175781 317.140625 626.972656 324.96875 641.582031 334.074219 C 648.101562 338.136719 655.128906 344.964844 659.222656 351.21875 C 660.898438 353.777344 664.160156 360.703125 666.472656 366.605469 C 669.265625 373.738281 671.632812 378.515625 673.539062 380.855469 L 680.980469 390 C 690.234375 401.367188 694.125 411.964844 691.542969 418.761719 C 690.546875 421.378906 688.570312 421.835938 678.75 421.714844 L 670.125 421.605469 L 673.125 423.96875 C 679.429688 428.9375 681 431.078125 681 434.714844 C 681 444.167969 673.097656 448.851562 653.929688 450.757812 C 641.960938 451.945312 639.75 452.289062 639.75 452.957031 C 639.75 453.296875 640.507812 453.757812 641.4375 453.984375 C 642.363281 454.207031 647.007812 455.457031 651.75 456.761719 C 656.492188 458.066406 661.726562 459.363281 663.375 459.648438 L 666.375 460.164062 L 661.722656 464.859375 C 655.652344 470.980469 650.199219 473.59375 643.5 473.59375 C 636.546875 473.59375 631.570312 471.121094 626.25 465.015625 C 611.519531 448.117188 609.164062 446.769531 586.230469 442.152344 C 568.304688 438.539062 560.179688 435.730469 553.5625 430.863281 C 542.78125 422.925781 536.300781 409.601562 536.261719 395.289062 C 536.246094 389.632812 535.554688 390.007812 533.5625 396.75 C 532.523438 400.273438 532.148438 403.707031 532.214844 409.125 C 532.433594 427.449219 541.652344 441.570312 560.625 452.652344 C 561.773438 453.324219 561.289062 453.820312 557.148438 456.242188 C 544.585938 463.589844 536.78125 474.386719 533.296875 489.242188 C 531.878906 495.292969 532.230469 509.511719 533.972656 516.375 C 538.335938 533.597656 549.058594 546.378906 562.765625 550.691406 C 567.660156 552.230469 569.519531 552.371094 584.25 552.3125 C 597.863281 552.257812 601.542969 551.992188 607.875 550.613281 C 635.265625 544.644531 658.097656 532.390625 678.625 512.644531 C 710.066406 482.398438 726 445.339844 726 402.441406 C 726 363.207031 711.90625 328.53125 684.402344 300.089844 C 663.269531 278.234375 636.441406 263.449219 607.5 257.707031 C 590.828125 254.394531 572.480469 253.445312 557.625 255.125 M 613.5 359.160156 C 613.5 359.523438 614.507812 360.234375 615.738281 360.746094 C 621.472656 363.121094 631.640625 372.175781 639.058594 381.511719 C 646.679688 391.101562 649.046875 393.75 650 393.75 C 650.714844 393.75 650.671875 393.003906 649.8125 390.570312 C 646.492188 381.160156 644.878906 370.648438 646.214844 367.160156 C 646.472656 366.492188 647.652344 365.441406 648.839844 364.828125 C 650.027344 364.214844 651 363.40625 651 363.035156 C 651 362.0625 644.726562 360.914062 632.355469 359.625 C 620.1875 358.355469 613.5 358.1875 613.5 359.160156 "/></g></svg>